<svg xmlns="http://www.w3.org/2000/svg" width="179" height="21" viewBox="0 0 179 21" fill="none">
  <path d="M23.8615 9.92923C24.7867 10.384 25.3983 11.3248 25.3983 12.4225C25.3983 14.3356 23.9242 15.6214 21.7603 15.6214H16.5856V4.64475H21.2114C23.4381 4.64475 24.9278 5.93059 24.9278 7.84366C24.9278 8.65907 24.5672 9.42744 23.8615 9.92923ZM22.0112 8.03184C22.0112 7.43596 21.6191 7.09098 20.9605 7.09098H19.4238V8.97269H20.9605C21.6191 8.97269 22.0112 8.62771 22.0112 8.03184ZM21.3839 13.1438C22.0739 13.1438 22.4816 12.7988 22.4816 12.203C22.4816 11.6071 22.0739 11.2621 21.3839 11.2621H19.4238V13.1438H21.3839Z" fill="url(#paint0_linear_406_40)"/>
  <path d="M32.1559 4.53499L37.2992 15.4646V15.6214H34.2101L33.5828 14.2258H29.4431L28.8315 15.6214H25.7424V15.4646L30.9014 4.53499H32.1559ZM31.5286 9.06678L30.4937 11.7482H32.5165L31.5286 9.06678Z" fill="url(#paint1_linear_406_40)"/>
  <path d="M41.1849 13.0497H45.1522V15.6214H38.3153V4.64475H41.1849V13.0497Z" fill="url(#paint2_linear_406_40)"/>
  <path d="M56.7614 4.61339H57.9218V15.6214H55.0522V12.5793L55.115 10.1488L52.3551 12.9556H52.1513L49.4071 10.1488L49.4541 12.5793V15.6214H46.5845V4.61339H47.7449L52.261 9.36471L56.7614 4.61339Z" fill="url(#paint3_linear_406_40)"/>
  <path d="M64.7438 15.7939C61.9526 15.7939 60.1806 14.0376 60.1806 11.4346V4.64475H63.0502V11.4189C63.0502 12.5009 63.6461 13.0968 64.7438 13.0968C65.8414 13.0968 66.4373 12.5009 66.4373 11.4189V4.64475H69.3069V11.4346C69.3069 14.0376 67.535 15.7939 64.7438 15.7939Z" fill="url(#paint4_linear_406_40)"/>
  <path d="M75.0105 13.0497H79.4325V15.6214H70.761V14.7119L74.3362 8.50226L75.1046 7.21643H71.1216V4.64475H79.3071V5.52289L75.6377 11.9834L75.0105 13.0497Z" fill="url(#paint5_linear_406_40)"/>
  <path d="M85.5521 4.64475C88.9235 4.64475 91.1816 6.84009 91.1816 10.1174C91.1816 13.4261 88.9235 15.6214 85.5521 15.6214H81.1928V4.64475H85.5521ZM85.5364 13.0497C87.2457 13.0497 88.2492 11.9677 88.2492 10.1174C88.2492 8.29841 87.2457 7.21643 85.5364 7.21643H84.0624V13.0497H85.5364Z" fill="url(#paint6_linear_406_40)"/>
  <path d="M97.7585 4.53499L102.902 15.4646V15.6214H99.8127L99.1855 14.2258H95.0457L94.4341 15.6214H91.345V15.4646L96.504 4.53499H97.7585ZM97.1313 9.06678L96.0963 11.7482H98.1192L97.1313 9.06678Z" fill="url(#paint7_linear_406_40)"/>
  <path d="M113.019 14.1474L114.807 16.7504V16.8602H111.969L110.981 15.4332C110.322 15.6684 109.601 15.7939 108.817 15.7939C105.446 15.7939 103.062 13.4574 103.062 10.1331C103.062 6.80872 105.446 4.47227 108.817 4.47227C112.188 4.47227 114.572 6.80872 114.572 10.1331C114.572 11.7639 114.007 13.1595 113.019 14.1474ZM108.817 13.0654C110.511 13.0654 111.64 11.8893 111.64 10.1331C111.64 8.37682 110.511 7.20075 108.817 7.20075C107.123 7.20075 105.994 8.36113 105.994 10.1331C105.994 11.8893 107.123 13.0654 108.817 13.0654Z" fill="url(#paint8_linear_406_40)"/>
  <path d="M123.98 15.7939C121.142 15.7939 119.448 14.414 119.448 12.0932H122.255C122.255 12.8459 122.851 13.2849 123.949 13.2849C124.968 13.2849 125.564 12.9243 125.564 12.3127C125.564 11.6855 124.889 11.4816 123.604 11.3405C120.609 11.0112 119.558 9.66265 119.558 7.8123C119.558 5.83651 121.299 4.47227 123.854 4.47227C126.41 4.47227 128.151 5.91491 128.151 8.0632H125.391C125.391 7.37324 124.827 6.96553 123.886 6.96553C122.929 6.96553 122.412 7.32619 122.412 7.90639C122.412 8.45522 122.82 8.73748 124.09 8.86292C127.273 9.17654 128.465 10.431 128.465 12.3911C128.465 14.4297 126.646 15.7939 123.98 15.7939Z" fill="url(#paint9_linear_406_40)"/>
  <path d="M137.364 4.64475V7.21643H134.714V15.6214H131.844V7.21643H129.194V4.64475H137.364Z" fill="url(#paint10_linear_406_40)"/>
  <path d="M143.271 15.7939C140.48 15.7939 138.708 14.0376 138.708 11.4346V4.64475H141.577V11.4189C141.577 12.5009 142.173 13.0968 143.271 13.0968C144.369 13.0968 144.964 12.5009 144.964 11.4189V4.64475H147.834V11.4346C147.834 14.0376 146.062 15.7939 143.271 15.7939Z" fill="url(#paint11_linear_406_40)"/>
  <path d="M154.447 4.64475C157.819 4.64475 160.077 6.84009 160.077 10.1174C160.077 13.4261 157.819 15.6214 154.447 15.6214H150.088V4.64475H154.447ZM154.431 13.0497C156.141 13.0497 157.144 11.9677 157.144 10.1174C157.144 8.29841 156.141 7.21643 154.431 7.21643H152.957V13.0497H154.431Z" fill="url(#paint12_linear_406_40)"/>
  <path d="M161.849 15.6214V4.64475H164.718V15.6214H161.849Z" fill="url(#paint13_linear_406_40)"/>
  <path d="M172.245 15.7939C168.874 15.7939 166.49 13.4574 166.49 10.1331C166.49 6.80872 168.874 4.47227 172.245 4.47227C175.617 4.47227 178 6.80872 178 10.1331C178 13.4574 175.617 15.7939 172.245 15.7939ZM172.245 13.0654C173.939 13.0654 175.068 11.8893 175.068 10.1331C175.068 8.37682 173.939 7.20075 172.245 7.20075C170.552 7.20075 169.423 8.36113 169.423 10.1331C169.423 11.8893 170.552 13.0654 172.245 13.0654Z" fill="url(#paint14_linear_406_40)"/>
  <path d="M9.8413 11.2142C9.8513 11.2177 9.8611 11.2214 9.8707 11.2253C11.2359 10.8165 12.2309 9.55066 12.2309 8.05241C12.2309 7.0206 11.759 6.099 11.0193 5.49168C10.4478 5.0225 9.7165 4.74087 8.9194 4.74087C8.37526 4.74087 7.86178 4.87211 7.40887 5.10466C6.3395 5.65374 5.60786 6.76763 5.60786 8.05241C5.60786 8.4769 5.68773 8.88274 5.83326 9.25571C5.9223 9.48389 6.03591 9.69977 6.17084 9.9001L9.8413 11.2142Z" fill="url(#paint15_linear_406_40)"/>
  <path d="M1.78379 19.9373C1.81374 20.35 2.07001 20.4432 2.35623 20.1403L10.0343 12.0163C10.3133 11.7211 10.2382 11.3722 9.8707 11.2253C9.8611 11.2214 9.8513 11.2177 9.8413 11.2142L6.17084 9.9001L5.09137 9.51363L1.85688 8.35563L1.66064 8.28538C1.27125 8.1456 0.975038 8.36858 1.00166 8.78461L1.78379 19.9373Z" fill="url(#paint16_linear_406_40)"/>
  <path d="M4.40306 3.0901C2.60907 3.0901 1.15476 4.54441 1.15476 6.3384C1.15476 7.10063 1.4173 7.80154 1.85688 8.35563L5.09137 9.51363C5.35164 9.45748 5.6003 9.37013 5.83326 9.25571C5.68773 8.88274 5.60786 8.4769 5.60786 8.05241C5.60786 6.76763 6.3395 5.65374 7.40887 5.10466C6.99157 4.08905 6.07451 3.33157 4.96375 3.13831C4.78161 3.10662 4.59427 3.0901 4.40306 3.0901Z" fill="url(#paint17_linear_406_40)"/>
  <path d="M11.2658 4.2483C11.2658 2.45431 9.81145 1 8.01746 1C6.61332 1 5.41727 1.89092 4.96375 3.13831C6.07451 3.33157 6.99157 4.08905 7.40887 5.10466C7.86178 4.87211 8.37526 4.74087 8.9194 4.74087C9.7165 4.74087 10.4478 5.0225 11.0193 5.49168C11.1781 5.10869 11.2658 4.68873 11.2658 4.2483Z" fill="url(#paint18_linear_406_40)"/>
  <path d="M1.85688 8.35563L1.66064 8.28538C1.27125 8.1456 0.975038 8.36858 1.00166 8.78461L1.78379 19.9373C1.81374 20.35 2.07001 20.4432 2.35623 20.1403L10.0343 12.0163C10.3133 11.7211 10.2382 11.3722 9.8707 11.2253M1.85688 8.35563C1.4173 7.80154 1.15476 7.10063 1.15476 6.3384C1.15476 4.54441 2.60907 3.0901 4.40306 3.0901C4.59427 3.0901 4.78161 3.10662 4.96375 3.13831M1.85688 8.35563L5.09137 9.51363M5.09137 9.51363L6.17084 9.9001M5.09137 9.51363C5.35164 9.45748 5.6003 9.37013 5.83326 9.25571M9.8707 11.2253C9.8611 11.2214 9.8513 11.2177 9.8413 11.2142L6.17084 9.9001M9.8707 11.2253C11.2359 10.8165 12.2309 9.55066 12.2309 8.05241C12.2309 7.0206 11.759 6.099 11.0193 5.49168M6.17084 9.9001C6.03591 9.69977 5.9223 9.48389 5.83326 9.25571M5.83326 9.25571C5.68773 8.88274 5.60786 8.4769 5.60786 8.05241C5.60786 6.76763 6.3395 5.65374 7.40887 5.10466M7.40887 5.10466C7.86178 4.87211 8.37526 4.74087 8.9194 4.74087C9.7165 4.74087 10.4478 5.0225 11.0193 5.49168M7.40887 5.10466C6.99157 4.08905 6.07451 3.33157 4.96375 3.13831M4.96375 3.13831C5.41727 1.89092 6.61332 1 8.01746 1C9.81145 1 11.2658 2.45431 11.2658 4.2483C11.2658 4.68873 11.1781 5.10869 11.0193 5.49168M23.8615 9.92923C24.7867 10.384 25.3983 11.3248 25.3983 12.4225C25.3983 14.3356 23.9242 15.6214 21.7603 15.6214H16.5856V4.64475H21.2114C23.4381 4.64475 24.9278 5.93059 24.9278 7.84366C24.9278 8.65907 24.5672 9.42744 23.8615 9.92923ZM22.0112 8.03184C22.0112 7.43596 21.6191 7.09098 20.9605 7.09098H19.4238V8.97269H20.9605C21.6191 8.97269 22.0112 8.62771 22.0112 8.03184ZM21.3839 13.1438C22.0739 13.1438 22.4816 12.7988 22.4816 12.203C22.4816 11.6071 22.0739 11.2621 21.3839 11.2621H19.4238V13.1438H21.3839ZM32.1559 4.53499L37.2992 15.4646V15.6214H34.2101L33.5828 14.2258H29.4431L28.8315 15.6214H25.7424V15.4646L30.9014 4.53499H32.1559ZM31.5286 9.06678L30.4937 11.7482H32.5165L31.5286 9.06678ZM41.1849 13.0497H45.1522V15.6214H38.3153V4.64475H41.1849V13.0497ZM56.7614 4.61339H57.9218V15.6214H55.0522V12.5793L55.115 10.1488L52.3551 12.9556H52.1513L49.4071 10.1488L49.4541 12.5793V15.6214H46.5845V4.61339H47.7449L52.261 9.36471L56.7614 4.61339ZM64.7438 15.7939C61.9526 15.7939 60.1806 14.0376 60.1806 11.4346V4.64475H63.0502V11.4189C63.0502 12.5009 63.6461 13.0968 64.7438 13.0968C65.8414 13.0968 66.4373 12.5009 66.4373 11.4189V4.64475H69.3069V11.4346C69.3069 14.0376 67.535 15.7939 64.7438 15.7939ZM75.0105 13.0497H79.4325V15.6214H70.761V14.7119L74.3362 8.50226L75.1046 7.21643H71.1216V4.64475H79.3071V5.52289L75.6377 11.9834L75.0105 13.0497ZM85.5521 4.64475C88.9235 4.64475 91.1816 6.84009 91.1816 10.1174C91.1816 13.4261 88.9235 15.6214 85.5521 15.6214H81.1928V4.64475H85.5521ZM85.5364 13.0497C87.2457 13.0497 88.2492 11.9677 88.2492 10.1174C88.2492 8.29841 87.2457 7.21643 85.5364 7.21643H84.0624V13.0497H85.5364ZM97.7585 4.53499L102.902 15.4646V15.6214H99.8127L99.1855 14.2258H95.0457L94.4341 15.6214H91.345V15.4646L96.504 4.53499H97.7585ZM97.1313 9.06678L96.0963 11.7482H98.1192L97.1313 9.06678ZM113.019 14.1474L114.807 16.7504V16.8602H111.969L110.981 15.4332C110.322 15.6684 109.601 15.7939 108.817 15.7939C105.446 15.7939 103.062 13.4574 103.062 10.1331C103.062 6.80872 105.446 4.47227 108.817 4.47227C112.188 4.47227 114.572 6.80872 114.572 10.1331C114.572 11.7639 114.007 13.1595 113.019 14.1474ZM108.817 13.0654C110.511 13.0654 111.64 11.8893 111.64 10.1331C111.64 8.37682 110.511 7.20075 108.817 7.20075C107.123 7.20075 105.994 8.36113 105.994 10.1331C105.994 11.8893 107.123 13.0654 108.817 13.0654ZM123.98 15.7939C121.142 15.7939 119.448 14.414 119.448 12.0932H122.255C122.255 12.8459 122.851 13.2849 123.949 13.2849C124.968 13.2849 125.564 12.9243 125.564 12.3127C125.564 11.6855 124.889 11.4816 123.604 11.3405C120.609 11.0112 119.558 9.66265 119.558 7.8123C119.558 5.83651 121.299 4.47227 123.854 4.47227C126.41 4.47227 128.151 5.91491 128.151 8.0632H125.391C125.391 7.37324 124.827 6.96553 123.886 6.96553C122.929 6.96553 122.412 7.32619 122.412 7.90639C122.412 8.45522 122.82 8.73748 124.09 8.86292C127.273 9.17654 128.465 10.431 128.465 12.3911C128.465 14.4297 126.646 15.7939 123.98 15.7939ZM137.364 4.64475V7.21643H134.714V15.6214H131.844V7.21643H129.194V4.64475H137.364ZM143.271 15.7939C140.48 15.7939 138.708 14.0376 138.708 11.4346V4.64475H141.577V11.4189C141.577 12.5009 142.173 13.0968 143.271 13.0968C144.369 13.0968 144.964 12.5009 144.964 11.4189V4.64475H147.834V11.4346C147.834 14.0376 146.062 15.7939 143.271 15.7939ZM154.447 4.64475C157.819 4.64475 160.077 6.84009 160.077 10.1174C160.077 13.4261 157.819 15.6214 154.447 15.6214H150.088V4.64475H154.447ZM154.431 13.0497C156.141 13.0497 157.144 11.9677 157.144 10.1174C157.144 8.29841 156.141 7.21643 154.431 7.21643H152.957V13.0497H154.431ZM161.849 15.6214V4.64475H164.718V15.6214H161.849ZM172.245 15.7939C168.874 15.7939 166.49 13.4574 166.49 10.1331C166.49 6.80872 168.874 4.47227 172.245 4.47227C175.617 4.47227 178 6.80872 178 10.1331C178 13.4574 175.617 15.7939 172.245 15.7939ZM172.245 13.0654C173.939 13.0654 175.068 11.8893 175.068 10.1331C175.068 8.37682 173.939 7.20075 172.245 7.20075C170.552 7.20075 169.423 8.36113 169.423 10.1331C169.423 11.8893 170.552 13.0654 172.245 13.0654Z" stroke="#0E0E0E" stroke-width="0.423809" stroke-miterlimit="10"/>
  <defs>
    <linearGradient id="paint0_linear_406_40" x1="1" y1="10.7476" x2="177.94" y2="10.7476" gradientUnits="userSpaceOnUse">
      <stop stop-color="#00F6FF"/>
      <stop offset="1" stop-color="#48B854"/>
    </linearGradient>
    <linearGradient id="paint1_linear_406_40" x1="1" y1="10.7476" x2="177.94" y2="10.7476" gradientUnits="userSpaceOnUse">
      <stop stop-color="#00F6FF"/>
      <stop offset="1" stop-color="#48B854"/>
    </linearGradient>
    <linearGradient id="paint2_linear_406_40" x1="1" y1="10.7476" x2="177.94" y2="10.7476" gradientUnits="userSpaceOnUse">
      <stop stop-color="#00F6FF"/>
      <stop offset="1" stop-color="#48B854"/>
    </linearGradient>
    <linearGradient id="paint3_linear_406_40" x1="1" y1="10.7476" x2="177.94" y2="10.7476" gradientUnits="userSpaceOnUse">
      <stop stop-color="#00F6FF"/>
      <stop offset="1" stop-color="#48B854"/>
    </linearGradient>
    <linearGradient id="paint4_linear_406_40" x1="1" y1="10.7476" x2="177.94" y2="10.7476" gradientUnits="userSpaceOnUse">
      <stop stop-color="#00F6FF"/>
      <stop offset="1" stop-color="#48B854"/>
    </linearGradient>
    <linearGradient id="paint5_linear_406_40" x1="1" y1="10.7476" x2="177.94" y2="10.7476" gradientUnits="userSpaceOnUse">
      <stop stop-color="#00F6FF"/>
      <stop offset="1" stop-color="#48B854"/>
    </linearGradient>
    <linearGradient id="paint6_linear_406_40" x1="1" y1="10.7476" x2="177.94" y2="10.7476" gradientUnits="userSpaceOnUse">
      <stop stop-color="#00F6FF"/>
      <stop offset="1" stop-color="#48B854"/>
    </linearGradient>
    <linearGradient id="paint7_linear_406_40" x1="1" y1="10.7476" x2="177.94" y2="10.7476" gradientUnits="userSpaceOnUse">
      <stop stop-color="#00F6FF"/>
      <stop offset="1" stop-color="#48B854"/>
    </linearGradient>
    <linearGradient id="paint8_linear_406_40" x1="1" y1="10.7476" x2="177.94" y2="10.7476" gradientUnits="userSpaceOnUse">
      <stop stop-color="#00F6FF"/>
      <stop offset="1" stop-color="#48B854"/>
    </linearGradient>
    <linearGradient id="paint9_linear_406_40" x1="1" y1="10.7476" x2="177.94" y2="10.7476" gradientUnits="userSpaceOnUse">
      <stop stop-color="#00F6FF"/>
      <stop offset="1" stop-color="#48B854"/>
    </linearGradient>
    <linearGradient id="paint10_linear_406_40" x1="1" y1="10.7476" x2="177.94" y2="10.7476" gradientUnits="userSpaceOnUse">
      <stop stop-color="#00F6FF"/>
      <stop offset="1" stop-color="#48B854"/>
    </linearGradient>
    <linearGradient id="paint11_linear_406_40" x1="1" y1="10.7476" x2="177.94" y2="10.7476" gradientUnits="userSpaceOnUse">
      <stop stop-color="#00F6FF"/>
      <stop offset="1" stop-color="#48B854"/>
    </linearGradient>
    <linearGradient id="paint12_linear_406_40" x1="1" y1="10.7476" x2="177.94" y2="10.7476" gradientUnits="userSpaceOnUse">
      <stop stop-color="#00F6FF"/>
      <stop offset="1" stop-color="#48B854"/>
    </linearGradient>
    <linearGradient id="paint13_linear_406_40" x1="1" y1="10.7476" x2="177.94" y2="10.7476" gradientUnits="userSpaceOnUse">
      <stop stop-color="#00F6FF"/>
      <stop offset="1" stop-color="#48B854"/>
    </linearGradient>
    <linearGradient id="paint14_linear_406_40" x1="1" y1="10.7476" x2="177.94" y2="10.7476" gradientUnits="userSpaceOnUse">
      <stop stop-color="#00F6FF"/>
      <stop offset="1" stop-color="#48B854"/>
    </linearGradient>
    <linearGradient id="paint15_linear_406_40" x1="1" y1="10.7476" x2="177.94" y2="10.7476" gradientUnits="userSpaceOnUse">
      <stop stop-color="#00F6FF"/>
      <stop offset="1" stop-color="#48B854"/>
    </linearGradient>
    <linearGradient id="paint16_linear_406_40" x1="1" y1="10.7476" x2="177.94" y2="10.7476" gradientUnits="userSpaceOnUse">
      <stop stop-color="#00F6FF"/>
      <stop offset="1" stop-color="#48B854"/>
    </linearGradient>
    <linearGradient id="paint17_linear_406_40" x1="1" y1="10.7476" x2="177.94" y2="10.7476" gradientUnits="userSpaceOnUse">
      <stop stop-color="#00F6FF"/>
      <stop offset="1" stop-color="#48B854"/>
    </linearGradient>
    <linearGradient id="paint18_linear_406_40" x1="1" y1="10.7476" x2="177.94" y2="10.7476" gradientUnits="userSpaceOnUse">
      <stop stop-color="#00F6FF"/>
      <stop offset="1" stop-color="#48B854"/>
    </linearGradient>
  </defs>
</svg>