<svg width="144" height="144" viewBox="0 0 144 144" fill="none" xmlns="http://www.w3.org/2000/svg">
<g id="Custom. vector">
<g id="Vector">
<path d="M69.6688 73.8289H18.4381C17.2008 73.8289 16.1965 72.8247 16.1965 71.5873C16.1965 70.35 17.2008 69.3457 18.4381 69.3457H69.6688C70.9062 69.3457 71.9104 70.35 71.9104 71.5873C71.9104 72.8247 70.9062 73.8289 69.6688 73.8289Z" fill="url(#paint0_linear_406_109)"/>
<path d="M125.723 73.8289H98.5418C97.3044 73.8289 96.3002 72.8247 96.3002 71.5873C96.3002 70.35 97.3044 69.3457 98.5418 69.3457H125.723C126.961 69.3457 127.965 70.35 127.965 71.5873C127.965 72.8247 126.962 73.8289 125.723 73.8289Z" fill="url(#paint1_linear_406_109)"/>
<path d="M54.6602 108.073H18.4381C17.2008 108.073 16.1965 107.069 16.1965 105.831C16.1965 104.594 17.2008 103.59 18.4381 103.59H54.6602C55.8975 103.59 56.9018 104.594 56.9018 105.831C56.9018 107.069 55.8975 108.073 54.6602 108.073Z" fill="url(#paint2_linear_406_109)"/>
<path d="M125.723 108.073H84.1047C82.8674 108.073 81.8631 107.069 81.8631 105.831C81.8631 104.594 82.8674 103.59 84.1047 103.59H125.723C126.961 103.59 127.965 104.594 127.965 105.831C127.965 107.069 126.962 108.073 125.723 108.073Z" fill="url(#paint3_linear_406_109)"/>
<path d="M39.5406 39.584H18.4381C17.2008 39.584 16.1965 38.5798 16.1965 37.3424C16.1965 36.105 17.2008 35.1008 18.4381 35.1008H39.5406C40.7779 35.1008 41.7822 36.105 41.7822 37.3424C41.7822 38.5798 40.7779 39.584 39.5406 39.584Z" fill="url(#paint4_linear_406_109)"/>
<path d="M125.723 39.584H68.4158C67.1784 39.584 66.1742 38.5798 66.1742 37.3424C66.1742 36.105 67.1784 35.1008 68.4158 35.1008H125.723C126.961 35.1008 127.965 36.105 127.965 37.3424C127.965 38.5798 126.962 39.584 125.723 39.584Z" fill="url(#paint5_linear_406_109)"/>
<path d="M48.062 48.1043C42.1274 48.1043 37.2979 43.2748 37.2979 37.3402C37.2979 31.4055 42.1274 26.5771 48.062 26.5771C53.9967 26.5771 58.8262 31.4055 58.8262 37.3402C58.8262 43.2759 53.9967 48.1043 48.062 48.1043ZM48.062 31.0603C44.5987 31.0603 41.7811 33.878 41.7811 37.3402C41.7811 40.8034 44.5987 43.6211 48.062 43.6211C51.5253 43.6211 54.343 40.8034 54.343 37.3402C54.343 33.878 51.5253 31.0603 48.062 31.0603Z" fill="url(#paint6_linear_406_109)"/>
<path d="M63.1816 116.598C57.247 116.598 52.4175 111.768 52.4175 105.832C52.4175 99.8977 57.247 95.0681 63.1816 95.0681C69.1185 95.0681 73.9469 99.8977 73.9469 105.832C73.948 111.768 69.1185 116.598 63.1816 116.598ZM63.1816 99.5513C59.7183 99.5513 56.9007 102.369 56.9007 105.832C56.9007 109.298 59.7183 112.114 63.1816 112.114C66.646 112.114 69.4637 109.297 69.4637 105.832C69.4648 102.369 66.646 99.5513 63.1816 99.5513Z" fill="url(#paint7_linear_406_109)"/>
<path d="M78.1948 82.3526C72.2567 82.3526 67.4272 77.522 67.4272 71.5873C67.4272 65.6527 72.2579 60.8232 78.1948 60.8232C84.1283 60.8232 88.9567 65.6516 88.9567 71.5873C88.9567 77.5231 84.1283 82.3526 78.1948 82.3526ZM78.1948 65.3064C74.7292 65.3064 71.9104 68.1241 71.9104 71.5873C71.9104 75.0517 74.7304 77.8694 78.1948 77.8694C81.6569 77.8694 84.4735 75.0506 84.4735 71.5873C84.4735 68.1241 81.6569 65.3064 78.1948 65.3064Z" fill="url(#paint8_linear_406_109)"/>
<path d="M71.9104 71.5873C71.9104 70.35 70.9062 69.3457 69.6688 69.3457H18.4381C17.2008 69.3457 16.1965 70.35 16.1965 71.5873C16.1965 72.8247 17.2008 73.8289 18.4381 73.8289H69.6688C70.9062 73.8289 71.9104 72.8247 71.9104 71.5873ZM71.9104 71.5873C71.9104 68.1241 74.7292 65.3064 78.1948 65.3064C81.6569 65.3064 84.4735 68.1241 84.4735 71.5873C84.4735 75.0506 81.6569 77.8694 78.1948 77.8694C74.7304 77.8694 71.9104 75.0517 71.9104 71.5873ZM125.723 73.8289H98.5418C97.3044 73.8289 96.3002 72.8247 96.3002 71.5873C96.3002 70.35 97.3044 69.3457 98.5418 69.3457H125.723C126.961 69.3457 127.965 70.35 127.965 71.5873C127.965 72.8247 126.962 73.8289 125.723 73.8289ZM54.6602 108.073H18.4381C17.2008 108.073 16.1965 107.069 16.1965 105.831C16.1965 104.594 17.2008 103.59 18.4381 103.59H54.6602C55.8975 103.59 56.9018 104.594 56.9018 105.831C56.9018 107.069 55.8975 108.073 54.6602 108.073ZM125.723 108.073H84.1047C82.8674 108.073 81.8631 107.069 81.8631 105.831C81.8631 104.594 82.8674 103.59 84.1047 103.59H125.723C126.961 103.59 127.965 104.594 127.965 105.831C127.965 107.069 126.962 108.073 125.723 108.073ZM39.5406 39.584H18.4381C17.2008 39.584 16.1965 38.5798 16.1965 37.3424C16.1965 36.105 17.2008 35.1008 18.4381 35.1008H39.5406C40.7779 35.1008 41.7822 36.105 41.7822 37.3424C41.7822 38.5798 40.7779 39.584 39.5406 39.584ZM125.723 39.584H68.4158C67.1784 39.584 66.1742 38.5798 66.1742 37.3424C66.1742 36.105 67.1784 35.1008 68.4158 35.1008H125.723C126.961 35.1008 127.965 36.105 127.965 37.3424C127.965 38.5798 126.962 39.584 125.723 39.584ZM48.062 48.1043C42.1274 48.1043 37.2979 43.2748 37.2979 37.3402C37.2979 31.4055 42.1274 26.5771 48.062 26.5771C53.9967 26.5771 58.8262 31.4055 58.8262 37.3402C58.8262 43.2759 53.9967 48.1043 48.062 48.1043ZM48.062 31.0603C44.5987 31.0603 41.7811 33.878 41.7811 37.3402C41.7811 40.8034 44.5987 43.6211 48.062 43.6211C51.5253 43.6211 54.343 40.8034 54.343 37.3402C54.343 33.878 51.5253 31.0603 48.062 31.0603ZM63.1816 116.598C57.247 116.598 52.4175 111.768 52.4175 105.832C52.4175 99.8977 57.247 95.0681 63.1816 95.0681C69.1185 95.0681 73.9469 99.8977 73.9469 105.832C73.948 111.768 69.1185 116.598 63.1816 116.598ZM63.1816 99.5513C59.7183 99.5513 56.9007 102.369 56.9007 105.832C56.9007 109.298 59.7183 112.114 63.1816 112.114C66.646 112.114 69.4637 109.297 69.4637 105.832C69.4648 102.369 66.646 99.5513 63.1816 99.5513ZM78.1948 82.3526C72.2567 82.3526 67.4272 77.522 67.4272 71.5873C67.4272 65.6527 72.2579 60.8232 78.1948 60.8232C84.1283 60.8232 88.9567 65.6516 88.9567 71.5873C88.9567 77.5231 84.1283 82.3526 78.1948 82.3526Z" stroke="url(#paint9_linear_406_109)" stroke-width="2.86925"/>
</g>
</g>
<defs>
<linearGradient id="paint0_linear_406_109" x1="15.8469" y1="71.9581" x2="127.662" y2="71.9581" gradientUnits="userSpaceOnUse">
<stop stop-color="#00F7FF"/>
<stop offset="1" stop-color="#48B859"/>
</linearGradient>
<linearGradient id="paint1_linear_406_109" x1="15.8469" y1="71.9581" x2="127.662" y2="71.9581" gradientUnits="userSpaceOnUse">
<stop stop-color="#00F7FF"/>
<stop offset="1" stop-color="#48B859"/>
</linearGradient>
<linearGradient id="paint2_linear_406_109" x1="15.8469" y1="71.9581" x2="127.662" y2="71.9581" gradientUnits="userSpaceOnUse">
<stop stop-color="#00F7FF"/>
<stop offset="1" stop-color="#48B859"/>
</linearGradient>
<linearGradient id="paint3_linear_406_109" x1="15.8469" y1="71.9581" x2="127.662" y2="71.9581" gradientUnits="userSpaceOnUse">
<stop stop-color="#00F7FF"/>
<stop offset="1" stop-color="#48B859"/>
</linearGradient>
<linearGradient id="paint4_linear_406_109" x1="15.8469" y1="71.9581" x2="127.662" y2="71.9581" gradientUnits="userSpaceOnUse">
<stop stop-color="#00F7FF"/>
<stop offset="1" stop-color="#48B859"/>
</linearGradient>
<linearGradient id="paint5_linear_406_109" x1="15.8469" y1="71.9581" x2="127.662" y2="71.9581" gradientUnits="userSpaceOnUse">
<stop stop-color="#00F7FF"/>
<stop offset="1" stop-color="#48B859"/>
</linearGradient>
<linearGradient id="paint6_linear_406_109" x1="15.8469" y1="71.9581" x2="127.662" y2="71.9581" gradientUnits="userSpaceOnUse">
<stop stop-color="#00F7FF"/>
<stop offset="1" stop-color="#48B859"/>
</linearGradient>
<linearGradient id="paint7_linear_406_109" x1="15.8469" y1="71.9581" x2="127.662" y2="71.9581" gradientUnits="userSpaceOnUse">
<stop stop-color="#00F7FF"/>
<stop offset="1" stop-color="#48B859"/>
</linearGradient>
<linearGradient id="paint8_linear_406_109" x1="15.8469" y1="71.9581" x2="127.662" y2="71.9581" gradientUnits="userSpaceOnUse">
<stop stop-color="#00F7FF"/>
<stop offset="1" stop-color="#48B859"/>
</linearGradient>
<linearGradient id="paint9_linear_406_109" x1="15.8469" y1="71.9581" x2="127.662" y2="71.9581" gradientUnits="userSpaceOnUse">
<stop stop-color="#00F7FF"/>
<stop offset="1" stop-color="#48B859"/>
</linearGradient>
</defs>
</svg>
