<svg xmlns="http://www.w3.org/2000/svg" width="55" height="56" viewBox="0 0 55 56" fill="none">
  <path d="M27.5596 4.6665C16.3463 4.66504 6.78749 12.9451 4.99216 24.215C3.19683 35.4849 9.69511 46.4168 20.334 50.0242C21.4798 50.2342 21.89 49.5178 21.89 48.9018C21.89 48.3488 21.8717 46.8835 21.8648 44.9352C15.5054 46.3352 14.1625 41.8132 14.1625 41.8132C13.7438 40.4061 12.8438 39.1983 11.6256 38.4088C9.56312 36.9645 11.7837 36.9972 11.7837 36.9972C13.252 37.2021 14.5442 38.0879 15.2831 39.3958C15.9086 40.5538 16.9624 41.4094 18.2103 41.7726C19.4582 42.1358 20.7969 41.9766 21.929 41.3302C22.0353 40.1495 22.5512 39.046 23.3842 38.2175C18.3104 37.6318 12.9754 35.6345 12.9754 26.7142C12.9473 24.407 13.7887 22.1765 15.3267 20.4818C14.6308 18.4736 14.7127 16.2708 15.5558 14.3218C15.5558 14.3218 17.474 13.6942 21.8396 16.7042C25.5838 15.6589 29.5353 15.6589 33.2796 16.7042C37.6475 13.6918 39.5633 14.3218 39.5633 14.3218C40.4103 16.2698 40.4923 18.4742 39.7925 20.4818C41.3361 22.1764 42.1768 24.4127 42.1392 26.7235C42.1392 35.6672 36.7996 37.6318 31.7075 38.2082C32.8059 39.3516 33.3693 40.9203 33.2544 42.5155C33.2544 45.6282 33.2269 48.1388 33.2269 48.9018C33.2269 49.5248 33.6348 50.2482 34.8012 50.0195C45.4357 46.406 51.927 35.4735 50.1279 24.2066C48.3289 12.9397 38.7705 4.66389 27.5596 4.6665Z" fill="white"/>
</svg>