<svg xmlns="http://www.w3.org/2000/svg" width="55" height="56" viewBox="0 0 55 56" fill="none">
  <path d="M27.5046 49.0957C21.8671 49.0957 21.2026 49.0654 19.0026 48.9674C17.2869 48.9099 15.5935 48.5548 13.9953 47.9174C11.2299 46.8217 9.04329 44.5944 7.96818 41.7784C7.36617 40.1451 7.04147 38.4195 7.00797 36.6754C6.87964 34.4401 6.87964 33.7074 6.87964 28.0117C6.87964 22.2554 6.90943 21.5834 7.00797 19.3551C7.0422 17.6133 7.3669 15.8901 7.96818 14.2591C9.04213 11.4393 11.2323 9.21012 14.0021 8.11772C15.6032 7.50219 17.2961 7.17072 19.0071 7.13772C21.1957 7.01172 21.9153 7.01172 27.5046 7.01172C33.188 7.01172 33.8411 7.04205 36.0067 7.13772C37.7222 7.17101 39.4196 7.50244 41.0255 8.11772C43.7945 9.21136 45.9843 11.4401 47.0594 14.2591C47.6716 15.9138 47.998 17.664 48.0242 19.4321C48.1526 21.6674 48.1526 22.3977 48.1526 28.0911C48.1526 33.7844 48.1205 34.5311 48.0242 36.7407C47.9901 38.4865 47.6646 40.2137 47.0617 41.8484C45.9839 44.6664 43.7939 46.8944 41.0255 47.9897C39.4219 48.6015 37.728 48.9321 36.0159 48.9674C33.8273 49.0957 33.1101 49.0957 27.5046 49.0957ZM27.4267 10.7054C21.8213 10.7054 21.2392 10.7334 19.0507 10.8337C17.7444 10.8513 16.4507 11.0968 15.2259 11.5594C13.4172 12.2641 11.986 13.7154 11.2865 15.5541C10.8287 16.8147 10.5876 18.1463 10.5738 19.4904C10.4523 21.7514 10.4523 22.3441 10.4523 28.0117C10.4523 33.6117 10.473 34.2907 10.5738 36.5377C10.5943 37.8682 10.8353 39.1856 11.2865 40.4344C11.987 42.2719 13.418 43.7221 15.2259 44.4267C16.4499 44.8924 17.7441 45.1379 19.0507 45.1524C21.269 45.2831 21.8534 45.2831 27.4267 45.2831C33.0482 45.2831 33.6303 45.2551 35.8005 45.1524C37.1076 45.1362 38.4023 44.8907 39.6276 44.4267C41.4253 43.716 42.8472 42.2691 43.5463 40.4391C44.0033 39.1773 44.2443 37.8451 44.259 36.5004H44.2842C44.3828 34.2697 44.3828 33.6747 44.3828 27.9744C44.3828 22.2741 44.3576 21.6744 44.259 19.4461C44.2385 18.1171 43.9975 16.8012 43.5463 15.5541C42.8488 13.7214 41.4267 12.2717 39.6276 11.5594C38.4025 11.0944 37.1077 10.8489 35.8005 10.8337C33.5844 10.7054 33.0046 10.7054 27.4267 10.7054ZM27.5046 38.7894C23.2192 38.7922 19.3541 36.1661 17.712 32.1358C16.0699 28.1055 16.9742 23.4648 20.0032 20.3781C23.0321 17.2914 27.5891 16.3667 31.5489 18.0352C35.5086 19.7036 38.0912 23.6367 38.0921 28.0001C38.0858 33.9525 33.3508 38.7778 27.5046 38.7894ZM27.5046 20.9954C23.7077 20.9954 20.6296 24.1294 20.6296 27.9954C20.6296 31.8614 23.7077 34.9954 27.5046 34.9954C31.3016 34.9954 34.3796 31.8614 34.3796 27.9954C34.3708 24.1331 31.2979 21.0044 27.5046 20.9954ZM38.5046 19.3317C37.1421 19.3266 36.0409 18.1991 36.0434 16.8117C36.0459 15.4244 37.1512 14.3011 38.5138 14.3011C39.8764 14.3011 40.9817 15.4244 40.9842 16.8117C40.9848 17.4811 40.7236 18.1231 40.2584 18.596C39.7931 19.0688 39.162 19.3336 38.5046 19.3317Z" fill="white"/>
</svg>