<svg xmlns="http://www.w3.org/2000/svg" width="43" height="42" viewBox="0 0 43 42" fill="none">
  <path fill-rule="evenodd" clip-rule="evenodd" d="M6.875 0C3.56129 0 0.875 2.68629 0.875 6V36C0.875 39.3137 3.56129 42 6.875 42H36.125C39.4387 42 42.125 39.3137 42.125 36V6C42.125 2.68629 39.4387 0 36.125 0H6.875ZM7.2018 16.1908H13.4339V35.2562H7.2018V16.1908ZM13.8444 10.2931C13.8039 8.4238 12.491 7 10.359 7C8.22708 7 6.83328 8.4238 6.83328 10.2931C6.83328 12.1238 8.18588 13.5886 10.2781 13.5886H10.318C12.491 13.5886 13.8444 12.1238 13.8444 10.2931ZM28.7337 15.7431C32.8348 15.7431 35.9092 18.4686 35.9092 24.3247L35.909 35.2562H29.6771V25.0562C29.6771 22.4942 28.7753 20.7459 26.5193 20.7459C24.7975 20.7459 23.772 21.9245 23.3216 23.0628C23.1568 23.4708 23.1163 24.0392 23.1163 24.609V35.2567H16.8835C16.8835 35.2567 16.9656 17.9803 16.8835 16.1913H23.1163V18.8918C23.9435 17.5936 25.4249 15.7431 28.7337 15.7431Z" fill="white"/>
</svg>