<svg width="147" height="152" viewBox="0 0 147 152" fill="none" xmlns="http://www.w3.org/2000/svg">
<g id="Quality">
<path id="Vector" d="M103.186 53.58L62.4329 94.3335L43.9085 75.8092M67.7754 8.94354C71.0856 6.37881 75.7119 6.37881 79.0221 8.94354L89.3165 16.9194C91.0027 18.2258 93.0911 18.9044 95.2231 18.8386L108.239 18.4368C112.425 18.3077 116.168 21.0269 117.338 25.0475L120.979 37.551C121.575 39.599 122.866 41.3755 124.629 42.5755L135.396 49.9013C138.858 52.257 140.287 56.6568 138.871 60.5976L134.467 72.8528C133.745 74.8601 133.745 77.056 134.467 79.0634L138.871 91.3186C140.287 95.2594 138.858 99.6592 135.396 102.015L124.629 109.341C122.866 110.541 121.575 112.317 120.979 114.365L117.338 126.869C116.168 130.889 112.425 133.609 108.239 133.479L95.2231 133.078C93.0911 133.012 91.0027 133.69 89.3165 134.997L79.0221 142.973C75.7119 145.537 71.0856 145.537 67.7754 142.973L57.481 134.997C55.7948 133.69 53.7064 133.012 51.5744 133.078L38.558 133.479C34.3724 133.609 30.6297 130.889 29.4592 126.869L25.8189 114.365C25.2227 112.317 23.932 110.541 22.1684 109.341L11.4018 102.015C7.9397 99.6592 6.51012 95.2594 7.92639 91.3186L12.3307 79.0634C13.0522 77.056 13.0522 74.8601 12.3307 72.8528L7.92639 60.5976C6.51012 56.6568 7.9397 52.257 11.4018 49.9013L22.1684 42.5755C23.932 41.3755 25.2227 39.599 25.8189 37.551L29.4592 25.0475C30.6297 21.0269 34.3724 18.3077 38.558 18.4368L51.5744 18.8386C53.7064 18.9044 55.7948 18.2258 57.481 16.9194L67.7754 8.94354Z" stroke="url(#paint0_linear_406_100)" stroke-width="13.7724" stroke-linecap="round" stroke-linejoin="round"/>
</g>
<defs>
<linearGradient id="paint0_linear_406_100" x1="7.38452" y1="76.5884" x2="139.368" y2="76.5884" gradientUnits="userSpaceOnUse">
<stop stop-color="#00F6FF"/>
<stop offset="1" stop-color="#48B854"/>
</linearGradient>
</defs>
</svg>
