<svg width="143" height="143" viewBox="0 0 143 143" fill="none" xmlns="http://www.w3.org/2000/svg">
<g id="9040390_hand_index_thumb_icon 1">
<path id="Vector" d="M97.0741 37.5579C97.9614 38.4173 98.4599 39.5829 98.4599 40.7983C98.4599 42.0137 97.9614 43.1793 97.0741 44.0386L69.1946 71.0416C68.6031 71.6145 68.2708 72.3916 68.2708 73.2018C68.2708 74.0121 68.6031 74.7891 69.1946 75.3621C69.7862 75.935 70.5885 76.2569 71.425 76.2569C72.2615 76.2569 73.0638 75.935 73.6554 75.3621L84.9543 64.4183L85.3558 64.7726C86.8234 66.0903 88.233 67.4902 88.8753 68.4147C89.3526 69.1103 89.7585 70.0997 90.0619 71.1366C90.218 71.6508 90.0752 72.4198 89.3303 73.1414L80.3464 81.8428C79.7549 82.4157 79.4226 83.1928 79.4226 84.003C79.4226 84.8133 79.7549 85.5903 80.3464 86.1632C80.938 86.7362 81.7402 87.058 82.5768 87.058C83.4133 87.058 84.2156 86.7362 84.8071 86.1632L91.7882 79.4017L92.3056 79.8165C93.8222 81.0781 94.9553 82.2964 95.2854 83.0482C95.6065 83.7567 95.7002 85.2387 95.5352 87.0057C95.4683 87.7705 95.3567 88.4747 95.272 88.9888L89.2679 94.8042C88.6763 95.3771 88.344 96.1542 88.344 96.9644C88.344 97.7747 88.6763 98.5517 89.2679 99.1247C89.8594 99.6976 90.6617 100.019 91.4982 100.019C92.3348 100.019 93.137 99.6976 93.7286 99.1247L98.1893 94.8042L99.7148 96.2818C100.338 96.8856 100.824 97.6093 101.141 98.4061C101.458 99.203 101.599 100.055 101.555 100.908C101.511 101.761 101.282 102.595 100.885 103.358C100.487 104.12 99.9291 104.793 99.2465 105.333L85.9268 115.892C84.2143 117.249 82.2264 118.241 80.0922 118.804L62.9764 123.328C62.44 123.47 61.8745 123.472 61.3372 123.334C60.7998 123.195 60.3096 122.922 59.9164 122.542L31.8049 95.314C31.3911 94.9131 31.1006 94.4087 30.9659 93.857C30.8311 93.3053 30.8576 92.7283 31.0421 92.1903L36.5422 76.2175L44.005 47.2833C44.1998 46.537 44.6692 45.8852 45.3251 45.4505C45.9811 45.0158 46.7783 44.828 47.5671 44.9224C48.3559 45.0169 49.0819 45.387 49.6088 45.9634C50.1357 46.5397 50.4271 47.2826 50.4284 48.0524L50.4284 68.877C50.4276 69.4815 50.612 70.0727 50.9582 70.5757C51.3045 71.0786 51.797 71.4708 52.3734 71.7025C52.9498 71.9343 53.5843 71.9952 54.1965 71.8775C54.8087 71.7599 55.3711 71.469 55.8125 71.0416L90.383 37.5579C91.2703 36.6985 92.4738 36.2157 93.7286 36.2157C94.9834 36.2157 96.1868 36.6985 97.0741 37.5579ZM89.4195 60.0935L101.535 48.3591C103.605 46.3539 104.768 43.6342 104.768 40.7983C104.768 37.9624 103.605 35.2427 101.535 33.2375C99.4645 31.2322 96.6565 30.1057 93.7286 30.1057C90.8007 30.1057 87.9927 31.2322 85.9223 33.2375L56.7359 61.5063L56.7359 48.0524C56.7294 45.795 55.8727 43.6174 54.3263 41.9284C52.78 40.2394 50.6505 39.1549 48.3373 38.8787C46.0241 38.6024 43.6863 39.1532 41.7627 40.4278C39.8391 41.7024 38.4618 43.6131 37.8894 45.8014L30.4756 74.5066L25.0559 90.2547C24.5003 91.8698 24.4201 93.6028 24.8243 95.2595C25.2285 96.9162 26.101 98.4311 27.3442 99.6345L55.4556 126.862C56.6354 128.004 58.1059 128.824 59.718 129.238C61.3302 129.652 63.0267 129.646 64.6358 129.221L81.7471 124.702C84.7383 123.912 87.5243 122.521 89.9236 120.619L103.243 110.06C104.608 108.979 105.723 107.633 106.517 106.109C107.311 104.584 107.767 102.916 107.855 101.211C107.943 99.5057 107.661 97.8017 107.027 96.2085C106.393 94.6154 105.422 93.1686 104.176 91.9613L101.584 89.4511C101.683 88.8156 101.762 88.1773 101.82 87.5372C101.99 85.7226 102.079 82.8797 101.089 80.6417C100.116 78.4382 97.9038 76.4163 96.405 75.172L95.7627 74.6535C96.5034 73.0161 96.6327 71.18 96.1284 69.4603C95.6941 67.8931 95.0173 66.3986 94.1211 65.0275C93.0149 63.4203 91.0834 61.5841 89.6426 60.2923L89.4195 60.0935Z" fill="url(#paint0_linear_406_118)"/>
<path id="Vector 2" d="M45.9085 24.1699L37.2801 15.7764M63.7145 17.6904L61.1541 3.62601M81.6869 18.0596L86.2321 7.41619" stroke="url(#paint1_linear_406_118)" stroke-width="6.34413" stroke-linecap="round"/>
</g>
<defs>
<linearGradient id="paint0_linear_406_118" x1="142.003" y1="74.9232" x2="4.15911" y2="79.3273" gradientUnits="userSpaceOnUse">
<stop stop-color="#48B859"/>
<stop offset="1" stop-color="#00F7FF"/>
</linearGradient>
<linearGradient id="paint1_linear_406_118" x1="3.2255" y1="85.2324" x2="120.578" y2="86.5147" gradientUnits="userSpaceOnUse">
<stop stop-color="#00F7FF"/>
<stop offset="1" stop-color="#48B859"/>
</linearGradient>
</defs>
</svg>
