<svg width="144" height="144" viewBox="0 0 144 144" fill="none" xmlns="http://www.w3.org/2000/svg">
<g id="Support">
<g id="Group">
<path id="Vector" d="M23.012 67.4972V54.1151C23.012 27.0162 44.9811 5.04723 72.0799 5.04723C99.1787 5.04723 121.148 27.0162 121.148 54.1151V67.4972M121.148 112.104V129.947C121.148 134.876 117.155 138.869 112.226 138.869H98.8442M81.0013 138.869H89.9228M72.0799 107.644V116.565M72.0799 98.7222V87.0575C72.0799 80.6296 75.992 74.8529 81.9604 72.4665C89.4633 69.4644 94.3835 62.1979 94.3835 54.1151C94.3835 41.7991 84.3959 31.8115 72.0799 31.8115C59.7639 31.8115 49.7763 41.7991 49.7763 54.1151M31.9335 112.104H27.4728C15.1567 112.104 5.16919 102.117 5.16919 89.8008C5.16919 77.4848 15.1567 67.4972 27.4728 67.4972H31.9335V112.104ZM116.687 112.104H112.226V67.4972H116.687C129.003 67.4972 138.991 77.4848 138.991 89.8008C138.991 102.117 129.003 112.104 116.687 112.104Z" stroke="url(#paint0_linear_406_126)" stroke-width="6.8862" stroke-miterlimit="10" stroke-linejoin="round"/>
</g>
</g>
<defs>
<linearGradient id="paint0_linear_406_126" x1="5.27624" y1="71.9579" x2="138.884" y2="71.9579" gradientUnits="userSpaceOnUse">
<stop stop-color="#04F3F6"/>
<stop offset="1" stop-color="#47B95D"/>
</linearGradient>
</defs>
</svg>
